<?xml version="1.0" encoding="utf-8"?>
<!-- Generator: Adobe Illustrator 23.0.1, SVG Export Plug-In . SVG Version: 6.00 Build 0)  -->
<svg version="1.1" id="Layer_1" xmlns="http://www.w3.org/2000/svg" xmlns:xlink="http://www.w3.org/1999/xlink" x="0px" y="0px"
	 viewBox="0 0 105.63 133.81" style="enable-background:new 0 0 105.63 133.81;" xml:space="preserve">
<style type="text/css">
	.st0{fill:#2874F0;stroke:#2874F0;stroke-width:3;stroke-miterlimit:10;}
</style>
<g>
	<path class="st0" d="M94.55,91.34l7.92-6.3l-3.42-8.52l-9.36,2.04l-5.94-6.66l1.8-8.46l-8.28-4.68l-5.76,8.64h-8.1l-5.22-8.64
		l-9,3.42l1.98,9.72l-5.94,6.23l-9.91-2.28l-0.35,0.67l-4.14,7.44l8.64,6.48v7.02l-8.64,6.48l4.32,8.88l9.54-2.58l5.58,6.66
		l-1.89,9.18l8.37,3.42l4.68-7.92h9l6.48,8.64l7.78-3.6l-2.11-9.81l6.39-6.39l9,2.4l3.78-7.98l-7.2-5.22V91.34z M66.53,112.82
		c-10.02,0-18.15-8.12-18.15-18.15c0-10.03,8.13-18.15,18.15-18.15c10.03,0,18.16,8.12,18.16,18.15
		C84.69,104.7,76.56,112.82,66.53,112.82z"/>
	<path class="st0" d="M87.06,34.64l6.89-1.97l0.08-6.5l-6.68-1.21L85.28,19l3.47-5.04l-4.14-5.31l-6.11,4.09l-5.3-2.2l-1.07-7.07
		l-6.81-0.21l-1.34,6.89l-5.58,2.46l-5.86-4.18l-0.41,0.34l-4.73,3.74l3.89,6.58l-1.91,4.59l-7.41,1.89l0.41,6.98l6.94,0.9
		l1.84,5.87l-3.73,5.49l4.55,4.51l5.21-3.91l5.89,2.44l1.89,7.41l6.07-0.24l1.28-6.99l5.91-2.44l5.23,4.01l4.64-4.19l-3.29-5.37
		L87.06,34.64z M62.91,41.08c-6.55-2.72-9.67-10.24-6.94-16.8c2.72-6.56,10.24-9.66,16.8-6.94c6.56,2.72,9.67,10.24,6.95,16.8
		C76.99,40.7,69.47,43.81,62.91,41.08z"/>
	<path class="st0" d="M34.49,57.62l4.15-2.6l-1.18-4.28l-4.61,0.47l-2.49-3.52l1.32-3.97l-3.73-2.7l-3.24,3.84l-3.89-0.44
		l-2.04-4.43l-4.51,1.16l0.42,4.78l-3.19,2.67l-4.64-1.63l-0.2,0.3l-2.39,3.35l3.8,3.58l-0.38,3.37l-4.5,2.65l1.59,4.5L9.5,64
		l2.32,3.5l-1.41,4.31l3.84,2.1l2.68-3.55l4.32,0.49l2.65,4.5l3.93-1.31l-0.48-4.83l3.42-2.72l4.19,1.64l2.25-3.63l-3.18-2.9
		L34.49,57.62z M19.86,66.42c-4.82-0.54-8.28-4.89-7.74-9.71c0.54-4.82,4.89-8.28,9.71-7.74c4.82,0.54,8.29,4.89,7.74,9.71
		C29.03,63.5,24.68,66.96,19.86,66.42z"/>
	<path class="st0" d="M49.84,59.54"/>
</g>
</svg>
