<?xml version="1.0" encoding="utf-8"?>
<!-- Generator: Adobe Illustrator 23.0.1, SVG Export Plug-In . SVG Version: 6.00 Build 0)  -->
<svg version="1.1" id="Layer_1" xmlns="http://www.w3.org/2000/svg" xmlns:xlink="http://www.w3.org/1999/xlink" x="0px" y="0px"
	 viewBox="0 0 402.39 457.48" style="enable-background:new 0 0 402.39 457.48;" xml:space="preserve">
<style type="text/css">
	.st0{fill:#2874F0;}
</style>
<g>
	<path class="st0" d="M357.4,5.48H44.98C22.8,5.48,4.82,23.47,4.82,45.65v366.17c0,22.19,17.98,40.17,40.16,40.17H357.4
		c22.18,0,40.16-17.98,40.16-40.17V45.65C397.56,23.47,379.58,5.48,357.4,5.48z M369.14,412.76c0,5.67-4.59,10.26-10.26,10.26H44.95
		c-5.66,0-10.25-4.59-10.25-10.26V45.02c0-5.67,4.59-10.26,10.25-10.26h313.93c5.67,0,10.26,4.59,10.26,10.26V412.76z"/>
	<g>
		<path class="st0" d="M267.36,99.94H73.23c-7.63,0-13.81-6.18-13.81-13.81v0c0-7.63,6.18-13.81,13.81-13.81h194.13
			c7.63,0,13.81,6.18,13.81,13.81v0C281.17,93.75,274.99,99.94,267.36,99.94z"/>
		<path class="st0" d="M220.17,150.88H76.72c-7.63,0-13.81-6.18-13.81-13.81v0c0-7.63,6.18-13.81,13.81-13.81h143.45
			c7.63,0,13.81,6.18,13.81,13.81v0C233.98,144.7,227.8,150.88,220.17,150.88z"/>
		<path class="st0" d="M178.34,207.46H73.23c-7.63,0-13.81-6.18-13.81-13.81v0c0-7.63,6.18-13.81,13.81-13.81h105.11
			c7.63,0,13.81,6.18,13.81,13.81v0C192.15,201.27,185.97,207.46,178.34,207.46z"/>
		<path class="st0" d="M138.12,264.03H73.23c-7.63,0-13.81-6.18-13.81-13.81v0c0-7.63,6.18-13.81,13.81-13.81h64.89
			c7.63,0,13.81,6.18,13.81,13.81v0C151.93,257.85,145.75,264.03,138.12,264.03z"/>
		<polygon class="st0" points="165.04,342.73 291.49,213.41 321.83,243.07 195.38,372.39 167.37,370.69 		"/>
		<path class="st0" d="M330.66,234.03l20.02-20.48l-28.78-28.14c-0.86-0.84-2.7-0.35-4.11,1.1l-17.46,17.86L330.66,234.03z"/>
	</g>
</g>
</svg>
