<?xml version="1.0" encoding="utf-8"?>
<!-- Generator: Adobe Illustrator 23.0.1, SVG Export Plug-In . SVG Version: 6.00 Build 0)  -->
<svg version="1.1" id="Layer_1" xmlns="http://www.w3.org/2000/svg" xmlns:xlink="http://www.w3.org/1999/xlink" x="0px" y="0px"
	 viewBox="0 0 113.17 103.08" style="enable-background:new 0 0 113.17 103.08;" xml:space="preserve">
<style type="text/css">
	.st0{fill:#2874F0;}
</style>
<path class="st0" d="M56.76,100.64l38.02-40.11c9.38-9.37,11.11-12.84,11.11-12.84c5.73-7.46,4.74-16.2,4.74-16.2
	c0-28.01-29.24-29.25-29.24-29.25c-14.59,0-24.8,12.37-24.8,12.37h-0.01c0,0-10.21-12.37-24.8-12.37c0,0-29.24,1.23-29.24,29.25
	c0,0-0.99,8.73,4.74,16.2c0,0,1.74,3.47,11.11,12.84l38.02,40.11l0.17,0.18L56.76,100.64z"/>
</svg>
