<?xml version="1.0" encoding="utf-8"?>
<!-- Generator: Adobe Illustrator 23.0.1, SVG Export Plug-In . SVG Version: 6.00 Build 0)  -->
<svg version="1.1" id="Layer_1" xmlns="http://www.w3.org/2000/svg" xmlns:xlink="http://www.w3.org/1999/xlink" x="0px" y="0px"
	 viewBox="0 0 404.55 459.93" style="enable-background:new 0 0 404.55 459.93;" xml:space="preserve">
<style type="text/css">
	.st0{fill:#2874F0;}
	.st1{fill:#FFFFFF;}
	.st2{fill:none;stroke:#FFFFFF;stroke-width:18;stroke-miterlimit:10;}
</style>
<path class="st0" d="M358.48,453.22H46.07c-22.18,0-40.16-17.98-40.16-40.16V46.88c0-22.18,17.98-40.16,40.16-40.16h312.41
	c22.18,0,40.16,17.98,40.16,40.16v366.18C398.65,435.23,380.66,453.22,358.48,453.22z"/>
<path class="st1" d="M268.44,101.16H74.31c-7.63,0-13.81-6.18-13.81-13.81v0c0-7.63,6.18-13.81,13.81-13.81h194.13
	c7.63,0,13.81,6.18,13.81,13.81v0C282.25,94.98,276.07,101.16,268.44,101.16z"/>
<path class="st1" d="M221.25,152.11H77.8c-7.63,0-13.81-6.18-13.81-13.81v0c0-7.63,6.18-13.81,13.81-13.81h143.45
	c7.63,0,13.81,6.18,13.81,13.81v0C235.06,145.92,228.88,152.11,221.25,152.11z"/>
<path class="st1" d="M179.42,208.68H74.31c-7.63,0-13.81-6.18-13.81-13.81v0c0-7.63,6.18-13.81,13.81-13.81h105.11
	c7.63,0,13.81,6.18,13.81,13.81v0C193.23,202.5,187.05,208.68,179.42,208.68z"/>
<path class="st1" d="M139.2,265.26H74.31c-7.63,0-13.81-6.18-13.81-13.81v0c0-7.63,6.18-13.81,13.81-13.81h64.89
	c7.63,0,13.81,6.18,13.81,13.81v0C153.01,259.08,146.83,265.26,139.2,265.26z"/>
<polygon class="st1" points="166.12,343.96 292.57,214.63 322.91,244.3 196.46,373.62 168.45,371.92 "/>
<path class="st1" d="M331.74,235.26l20.02-20.48l-28.78-28.14c-0.86-0.84-2.7-0.35-4.11,1.1l-17.46,17.86L331.74,235.26z"/>
<path class="st2" d="M358.7,424.25H46.56c-6.36,0-11.52-5.16-11.52-11.52V46.9c0-6.36,5.16-11.52,11.52-11.52H358.7
	c6.36,0,11.52,5.16,11.52,11.52v365.83C370.22,419.09,365.06,424.25,358.7,424.25z"/>
</svg>
