<?xml version="1.0" encoding="utf-8"?>
<!-- Generator: Adobe Illustrator 23.0.1, SVG Export Plug-In . SVG Version: 6.00 Build 0)  -->
<svg version="1.1" id="Layer_1" xmlns="http://www.w3.org/2000/svg" xmlns:xlink="http://www.w3.org/1999/xlink" x="0px" y="0px"
	 viewBox="0 0 501.87 439.91" style="enable-background:new 0 0 501.87 439.91;" xml:space="preserve">
<style type="text/css">
	.st0{fill:#2874F0;}
</style>
<g>
	<path class="st0" d="M489.27,84.88c6.96,0,11.82,5.64,11.82,12.61L444.9,262.4l-0.13,0.26c-1.95,3.77-5.67,6.3-10.33,6.3
		c0,0-203.16,1.49-218.65,1.49s-25.5-14.35-25.5-14.35L74.51,25.9H13.39c-6.96,0-12.61-5.64-12.61-12.61S6.42,0.68,13.39,0.68h70.33
		c4.67,0,8.74,2.54,10.92,6.3l38.89,78.11L489.27,84.88z"/>
	<path class="st0" d="M443.72,369c6.63,0,12.01-5.38,12.01-12.01c0-6.63-5.38-12.01-12.01-12.01l-220.14-0.13
		c-8.47,0-15.34-6.73-15.34-15.03s6.87-15.03,15.34-15.03l220.93-14.26c6.25,0,11.32-5.07,11.32-11.32
		c0-6.25-5.07-11.32-11.32-11.32l-208.17,9.66c-28.48,0-51.56,18.56-51.56,41.45c0,22.89,23.08,41.45,51.56,41.45L443.72,369z"/>
	<circle class="st0" cx="239.43" cy="407.76" r="31.47"/>
	<circle class="st0" cx="417.1" cy="408.55" r="30.68"/>
</g>
</svg>
