<?xml version="1.0" encoding="utf-8"?>
<!-- Generator: Adobe Illustrator 23.0.1, SVG Export Plug-In . SVG Version: 6.00 Build 0)  -->
<svg version="1.1" id="Layer_1" xmlns="http://www.w3.org/2000/svg" xmlns:xlink="http://www.w3.org/1999/xlink" x="0px" y="0px"
	 viewBox="0 0 458.04 450.83" style="enable-background:new 0 0 458.04 450.83;" xml:space="preserve">
<style type="text/css">
	.st0{fill:#2874F0;}
</style>
<g>
	<path class="st0" d="M169.46,340.98h114.62v-87.76h30.61v106.5c0,0,0.62,11.87-21.55,11.56s-123.68,0.01-123.68,0.01v61.21
		c0,0-0.94,19.36-21.55,14.68L8.62,368.15c0,0-5.93-3.44-5.62-21.86c0.31-18.43,0-315.5,0-315.5v-9.6c0,0-1.14-17.76,22.38-18.24
		h271.68c0,0,17.63-0.96,17.63,15.84v127.68h-31.53V34.15H80.58l80.64,46.08c0,0,7.2,8.16,7.2,21.6S169.46,340.98,169.46,340.98z"/>
	<path class="st0" d="M451.42,207.31c2.21-1.68,3.63-4.34,3.63-7.33c0-2.99-1.43-5.65-3.63-7.33l-90.75-65.67
		c-0.7-0.17-1.43-0.26-2.19-0.26c-5.08,0-9.21,4.12-9.21,9.21v41.74h-84.75c-12.33,0-22.32,9.99-22.32,22.32s9.99,22.32,22.32,22.32
		h84.75v40.84c0,5.08,4.12,9.21,9.21,9.21c0.75,0,1.48-0.09,2.19-0.26L451.42,207.31z"/>
</g>
</svg>
