<?xml version="1.0" encoding="utf-8"?>
<!-- Generator: Adobe Illustrator 23.0.1, SVG Export Plug-In . SVG Version: 6.00 Build 0)  -->
<svg version="1.1" id="Layer_1" xmlns="http://www.w3.org/2000/svg" xmlns:xlink="http://www.w3.org/1999/xlink" x="0px" y="0px"
	 viewBox="0 0 228.68 218.52" style="enable-background:new 0 0 228.68 218.52;" xml:space="preserve">
<style type="text/css">
	.st0{fill:#FFFFFF;}
</style>
<g>
	<path class="st0" d="M14.88,26.91C8.11,26.73,2.5,21.71,2.34,14.94C2.19,8.17,7.55,2.56,14.31,2.4c0,0,32.12-3.79,44.7,24.51
		l0.95,2.97l1.14,4.5l5.16,24.6l11.04,57.66c0,0,1.44,22.86,25.56,22.86s64.98,0,64.98,0l35.41-62.01
		c2.03-3.94,6.13-6.63,10.87-6.63c6.75,0,12.22,5.47,12.22,12.22c0,2.35-0.66,4.55-1.82,6.41l-29.79,56.02
		c0,0-9.36,19.13-27.48,19.13h-73.8c0,0-33.24-3.96-38.28-31.8S35.73,39.01,35.73,39.01S33.4,27.42,14.88,26.91z"/>
	<circle class="st0" cx="93.18" cy="196.05" r="20.23"/>
	<circle class="st0" cx="171.05" cy="196.05" r="20.23"/>
</g>
</svg>
