<?xml version="1.0" encoding="utf-8"?>
<!-- Generator: Adobe Illustrator 23.0.1, SVG Export Plug-In . SVG Version: 6.00 Build 0)  -->
<svg version="1.1" id="Layer_1" xmlns="http://www.w3.org/2000/svg" xmlns:xlink="http://www.w3.org/1999/xlink" x="0px" y="0px"
	 viewBox="0 0 30.81 47.58" style="enable-background:new 0 0 30.81 47.58;" xml:space="preserve">
<style type="text/css">
	.st0{fill:#FFFFFF;}
	.st1{fill:#00FFFF;}
</style>
<g>
	<path class="st0" d="M26.2,0.12H4.63c-2.13,0-3.86,1.73-3.86,3.86v39.58c0,2.13,1.73,3.86,3.86,3.86H26.2
		c2.13,0,3.86-1.73,3.86-3.86V3.98C30.06,1.84,28.33,0.12,26.2,0.12z M28.19,43.25c0,1.26-1.02,2.28-2.28,2.28H4.93
		c-1.26,0-2.28-1.02-2.28-2.28V4.27c0-1.26,1.02-2.28,2.28-2.28H7.5v0.85c0,1.5,1.22,2.72,2.72,2.72h10.5c1.5,0,2.72-1.22,2.72-2.72
		V1.99h2.47c1.26,0,2.28,1.02,2.28,2.28V43.25z"/>
	<path class="st1" d="M0.77,6.44C0.39,6.55,0.12,6.84,0.12,7.17v2.01c0,0.33,0.27,0.62,0.65,0.73L0.77,6.44z"/>
	<path class="st1" d="M0.77,10.34c-0.38,0.2-0.65,0.71-0.65,1.32v3.65c0,0.61,0.27,1.12,0.65,1.32L0.77,10.34z"/>
	<path class="st1" d="M0.77,16.83c-0.38,0.2-0.65,0.71-0.65,1.32v3.65c0,0.61,0.27,1.12,0.65,1.32L0.77,16.83z"/>
	<path class="st1" d="M30.06,11.39c0.34,0.03,0.6,0.32,0.6,0.66v5.1c0,0.34-0.26,0.63-0.6,0.66V11.39z"/>
</g>
</svg>
