<?xml version="1.0" encoding="utf-8"?>
<!-- Generator: Adobe Illustrator 23.0.1, SVG Export Plug-In . SVG Version: 6.00 Build 0)  -->
<svg version="1.1" id="Layer_1" xmlns="http://www.w3.org/2000/svg" xmlns:xlink="http://www.w3.org/1999/xlink" x="0px" y="0px"
	 viewBox="0 0 41.09 48.38" style="enable-background:new 0 0 41.09 48.38;" xml:space="preserve">
<style type="text/css">
	.st0{fill:#FFFFFF;}
	.st1{fill:#00FFFF;}
</style>
<g>
	<path class="st0" d="M39.66,7.98l-5.67-2.75l-2.04-3.61c0,0-0.45-1.08-1.83-1.08h-9.57c0,0,0,0-0.01,0h-9.57
		c-1.38,0-1.83,1.08-1.83,1.08L7.11,5.23L1.43,7.98C0.47,8.39,0.46,9.16,0.46,9.2v30.18c0,2.15,1.74,3.89,3.89,3.89h11.88l3.51,4.24
		c0.21,0.2,0.49,0.33,0.81,0.33h0.01c0.32,0,0.6-0.13,0.81-0.33l3.51-4.24h11.88c2.15,0,3.89-1.74,3.89-3.89V9.2
		C40.64,9.16,40.62,8.39,39.66,7.98z M30.5,2.44l1.8,3.23l-6.44,7.45L21.67,6.6L30.5,2.44z M22.82,11.51l-1.15,2.48H19.6l-1.35-2.48
		l2.3-3.58L22.82,11.51z M26.87,2.25l-6.32,3.06l-6.32-3.06H26.87z M10.59,2.44L19.4,6.6l-4.18,6.53L8.78,5.68L10.59,2.44z
		 M4.03,41.62c0,0-1.9,0.1-1.9-2.99V9.59l5.42-2.64l6.79,7.76c0.21,0.31,0.57,0.51,0.97,0.51c0.4,0,0.76-0.2,0.97-0.51l0.96-1.46
		l0.77,1.46l-4.45,25.25l1.23,1.67H4.03z M20.55,45.87l-5.23-6.23l4.41-23.95h1.66l4.45,23.97L20.55,45.87z M38.96,38.64
		c0,3.1-1.85,2.99-1.85,2.99H26.65l1.2-1.67L23.52,14.7l0.75-1.46l0.93,1.46c0.21,0.31,0.55,0.51,0.95,0.51
		c0.39,0,0.74-0.2,0.94-0.51l6.6-7.76l5.27,2.65V38.64z"/>
	<path class="st1" d="M19.26,27.3l-0.34-0.34c-0.24-0.24-0.24-0.63,0-0.87l2.05-2.05c0.24-0.24,0.63-0.24,0.87,0l0.34,0.34
		c0.24,0.24,0.24,0.63,0,0.87l-2.05,2.05C19.88,27.54,19.5,27.54,19.26,27.3z"/>
	<path class="st1" d="M17.76,40.24l-0.34-0.34c-0.24-0.24-0.24-0.63,0-0.87l4.88-4.88c0.24-0.24,0.63-0.24,0.87,0l0.34,0.34
		c0.24,0.24,0.24,0.63,0,0.87l-4.88,4.88C18.39,40.48,18,40.48,17.76,40.24z"/>
	<path class="st1" d="M18.4,33.74l-0.34-0.34c-0.24-0.24-0.24-0.63,0-0.87l3.76-3.76c0.24-0.24,0.63-0.24,0.87,0l0.34,0.34
		c0.24,0.24,0.24,0.63,0,0.87l-3.76,3.76C19.03,33.98,18.64,33.98,18.4,33.74z"/>
	<path class="st0" d="M35.52,20.25h-6.99c-0.43,0-0.78,0.35-0.78,0.78v5.86c0,1.85,1.5,3.35,3.35,3.35h1.84
		c1.85,0,3.35-1.5,3.35-3.35v-5.86C36.3,20.6,35.95,20.25,35.52,20.25z M34.87,26.77c0,1.12-0.91,2.03-2.03,2.03h-1.61
		c-1.12,0-2.03-0.91-2.03-2.03v-5.12h5.68V26.77z"/>
</g>
</svg>
