<?xml version="1.0" encoding="utf-8"?>
<!-- Generator: Adobe Illustrator 23.0.1, SVG Export Plug-In . SVG Version: 6.00 Build 0)  -->
<svg version="1.1" id="Layer_1" xmlns="http://www.w3.org/2000/svg" xmlns:xlink="http://www.w3.org/1999/xlink" x="0px" y="0px"
	 viewBox="0 0 56.91 48.11" style="enable-background:new 0 0 56.91 48.11;" xml:space="preserve">
<style type="text/css">
	.st0{fill:none;stroke:#FFFFFF;stroke-width:1.5;stroke-miterlimit:10;}
	.st1{fill:#00FFFF;stroke:#00FFFF;stroke-width:0.5;stroke-miterlimit:10;}
</style>
<g>
	<path class="st0" d="M28.92,8.91c4.06-0.23,7.31-3.48,7.54-7.54l-3.05,0c-0.77,1.99-2.7,3.4-4.95,3.4c-2.26,0-4.19-1.41-4.95-3.4
		l-3.05,0c0.23,4.06,3.48,7.31,7.54,7.54l0,0.11c0,0-1.38,3.12-4.42,3.12c0,0-7.17,0.61-7.17-10.77c0,0-13.12-0.41-13.12,11.78
		c0,0-1.79,1.42-1.79,2.42s8.57,7.29,9.68,7.29s2.54-3.94,2.91-0.92c0,0,1.33,12.54-1.47,22.53c-0.34,1.21,1.02,2.27,2.27,2.27
		h13.13h0.92h13.13c1.25,0,2.61-1.06,2.27-2.27c-2.81-9.98-1.47-22.53-1.47-22.53c0.37-3.02,1.8,0.92,2.91,0.92s9.68-6.29,9.68-7.29
		s-1.79-2.42-1.79-2.42c0-12.19-13.12-11.78-13.12-11.78c0,11.38-7.17,10.77-7.17,10.77c-3.05,0-4.42-3.12-4.42-3.12V8.91z"/>
	<g>
		<circle class="st1" cx="28.46" cy="15.8" r="1.5"/>
		<circle class="st1" cx="28.46" cy="22.73" r="1.5"/>
		<circle class="st1" cx="28.46" cy="29.66" r="1.5"/>
	</g>
</g>
</svg>
