<?xml version="1.0" encoding="utf-8"?>
<!-- Generator: Adobe Illustrator 23.0.1, SVG Export Plug-In . SVG Version: 6.00 Build 0)  -->
<svg version="1.1" id="Layer_1" xmlns="http://www.w3.org/2000/svg" xmlns:xlink="http://www.w3.org/1999/xlink" x="0px" y="0px"
	 viewBox="0 0 49.2 48.32" style="enable-background:new 0 0 49.2 48.32;" xml:space="preserve">
<style type="text/css">
	.st0{fill:none;stroke:#221F1F;stroke-width:0.25;}
	.st1{fill:#00FFFF;}
	.st2{fill:#FFFFFF;}
	.st3{fill:none;}
</style>
<path class="st0" d="M24.6,24.16"/>
<path class="st1" d="M35.58,40.22c-0.62,0-1.21,0.15-1.73,0.42l-5.12-7.04h-6.55c-5.87,0-10.63-4.76-10.63-10.63
	s4.76-10.64,10.63-10.64c0.06,0,0.13,0,0.19,0v-1.65c-0.09,0-0.19,0-0.28,0c-6.74,0-12.21,5.46-12.21,12.2s5.47,12.21,12.21,12.21
	c0.09,0,0.19,0,0.28,0h5.67l4.64,6.47c-0.56,0.66-0.9,1.52-0.9,2.46c0,2.1,1.7,3.8,3.79,3.8c2.1,0,3.8-1.7,3.8-3.8
	C39.37,41.92,37.67,40.22,35.58,40.22z M35.58,46.26c-1.23,0-2.24-1-2.24-2.24c0-1.24,1-2.24,2.24-2.24c1.24,0,2.24,1,2.24,2.24
	C37.82,45.26,36.81,46.26,35.58,46.26z"/>
<g>
	<path class="st2" d="M17.33,6.28V2.19h8.66v4.08H24.3v-2.4h-5.29v3.6c0,0-3.25,0.04-5.8,2.39l-2.97-2.39l-3.7,3.85l2.38,2.38
		c0,0-2.58,4.11-2.38,6.28H2.21v5.98h4.04c0,0,0.64,3.78,2.67,6.73L6.5,35.65l3.75,3.77l2.9-2.61c0,0,2.5,1.99,5.86,2.61v0.48v3.6
		h5.29v-2.4l0-1.68h1.68v1.68v4.08h-8.66v-4.08v-0.47c0,0-2.31-0.42-3.96-1.73l-3.12,2.93l-5.89-6l2.41-3.36
		c0,0-1.16-2.36-1.81-5.02l-0.01-0.03H0.52v-9.13h4.56c0,0,0.34-2.41,1.68-4.06l-2.63-2.9l6.13-6l3,2.4
		C13.25,7.73,15.64,6.24,17.33,6.28z"/>
	<rect x="24.3" y="22.61" class="st2" width="1.68" height="1.44"/>
	<rect x="24.3" y="10.68" class="st2" width="1.68" height="1.68"/>
	<path class="st2" d="M37.33,0.51c-2.1,0-3.8,1.7-3.8,3.8c0,0.61,0.14,1.19,0.4,1.7l-4.35,4.67H28.4v1.68h2.01l4.57-5.08
		c0.65,0.51,1.46,0.82,2.35,0.82c2.09,0,3.8-1.7,3.8-3.8C41.13,2.21,39.43,0.51,37.33,0.51z M37.33,6.54c-1.24,0-2.24-1-2.24-2.24
		c0-1.24,1-2.24,2.24-2.24c1.23,0,2.24,1,2.24,2.24C39.57,5.54,38.57,6.54,37.33,6.54z"/>
	<rect x="25.98" y="27.66" class="st2" width="2.4" height="1.44"/>
	<path class="st2" d="M42.5,30.06c-1.69,0-3.12,1.11-3.61,2.63l-0.01,0.01h-2.57l-3.89-5.04h-2.36v1.44h1.69l3.61,5.04h3.35
		c0.15,1.96,1.78,3.51,3.79,3.51c2.1,0,3.8-1.7,3.8-3.8C46.29,31.76,44.59,30.06,42.5,30.06z M42.5,36.1c-1.24,0-2.24-1-2.24-2.24
		c0-1.24,1-2.24,2.24-2.24c1.24,0,2.24,1,2.24,2.24C44.74,35.09,43.73,36.1,42.5,36.1z"/>
	<rect x="28.35" y="22.61" class="st2" width="1.68" height="1.44"/>
	<path class="st2" d="M44.89,19.09c-2,0-3.65,1.55-3.79,3.52h-9.34v1.44h9.51c0.49,1.53,1.92,2.63,3.61,2.63c2.09,0,3.8-1.7,3.8-3.8
		C48.69,20.79,46.98,19.09,44.89,19.09z M44.89,25.12c-1.24,0-2.24-1-2.24-2.24c0-1.23,1-2.24,2.24-2.24c1.24,0,2.24,1,2.24,2.24
		C47.13,24.12,46.13,25.12,44.89,25.12z"/>
</g>
<path class="st1" d="M42.48,8.89c-1.72,0-3.17,1.13-3.65,2.68l-3.53,0l-3.87,5.99h-9.18c-3.16,0.01-5.72,2.59-5.72,5.77
	s2.56,5.76,5.72,5.77h1.69v-1.44h-1.69c-2.41-0.01-4.36-1.94-4.36-4.32c0-2.38,1.95-4.31,4.36-4.33h10.12L36.25,13h2.42
	c0.16,1.95,1.8,3.48,3.81,3.48c2.11,0,3.82-1.7,3.82-3.8C46.29,10.59,44.58,8.89,42.48,8.89z M42.48,14.92c-1.24,0-2.25-1-2.25-2.24
	c0-1.23,1.01-2.24,2.25-2.24c1.24,0,2.25,1,2.25,2.24C44.73,13.92,43.72,14.92,42.48,14.92z"/>
<path class="st3" d="M36.06,32.7"/>
</svg>
