<?xml version="1.0" encoding="utf-8"?>
<!-- Generator: Adobe Illustrator 23.0.1, SVG Export Plug-In . SVG Version: 6.00 Build 0)  -->
<svg version="1.1" id="Layer_1" xmlns="http://www.w3.org/2000/svg" xmlns:xlink="http://www.w3.org/1999/xlink" x="0px" y="0px"
	 viewBox="0 0 44.96 46.98" style="enable-background:new 0 0 44.96 46.98;" xml:space="preserve">
<style type="text/css">
	.st0{fill:#6FCADB;stroke:#6FCADB;stroke-width:0.8;stroke-miterlimit:10;}
	.st1{fill:#FFFFFF;}
	.st2{fill:#00FFFF;}
</style>
<path class="st0" d="M22.48,21.22"/>
<g>
	<path class="st1" d="M12.66,21.68h-0.49v-4.23c0-0.48-0.38-0.86-0.86-0.86c-0.05,0-0.09,0-0.14,0.01v-4.76l0.01-0.67V8.05
		c0-0.29-0.15-0.55-0.37-0.7L3.68,3.79H3.43c-0.47,0-0.86,0.39-0.86,0.86v11.95C2.52,16.6,2.48,16.6,2.43,16.6
		c-0.47,0-0.86,0.38-0.86,0.86v4.23H1.08c-0.47,0-0.86,0.39-0.86,0.86v23.35c0,0.47,0.38,0.86,0.86,0.86h11.59
		c0.47,0,0.86-0.38,0.86-0.86V22.54C13.52,22.07,13.14,21.68,12.66,21.68z M4.24,6.06l5.18,2.62v7.87H4.24V6.06z M3.32,18.3h7.1
		v3.35h-7.1V18.3z M11.79,45.01H1.95V23.32h9.85V45.01z"/>
	<path class="st1" d="M36.13,14.03c0.14-0.16,0.22-0.36,0.22-0.59c0-0.49-0.4-0.89-0.89-0.89c-0.22,0-0.42,0.08-0.58,0.21
		L18.62,29.03c-0.13,0.16-0.21,0.36-0.21,0.58c0,0.49,0.4,0.89,0.89,0.89c0.23,0,0.45-0.09,0.6-0.24L36.13,14.03z"/>
	<path class="st1" d="M36.96,18.26c0.17-0.16,0.28-0.39,0.28-0.65c0-0.49-0.4-0.89-0.89-0.89c-0.24,0-0.45,0.09-0.61,0.24
		L23.65,29.08c-0.17,0.16-0.28,0.39-0.28,0.65c0,0.49,0.4,0.89,0.89,0.89c0.28,0,0.53-0.13,0.69-0.33L36.96,18.26z"/>
	<path class="st2" d="M13.03,6.52c3.17-2.83,7.35-4.56,11.94-4.56c9.89,0,17.91,8.02,17.91,17.91c0,5.36-2.36,10.18-6.1,13.46
		l-0.26,0.22c-0.13,0.15-0.21,0.35-0.21,0.57c0,0.48,0.39,0.88,0.88,0.88c0.24,0,0.46-0.1,0.61-0.25l0.21-0.21
		c4.05-3.59,6.6-8.84,6.6-14.68c0-10.84-8.79-19.62-19.62-19.62c-5.11,0-9.76,1.95-13.25,5.15l-0.09,0.1
		c-0.15,0.15-0.24,0.36-0.24,0.59c0,0.47,0.38,0.85,0.86,0.85c0.21,0,0.4-0.07,0.55-0.19L13.03,6.52z"/>
	<path class="st2" d="M12.9,9.37c2.95-3.42,7.31-5.58,12.18-5.58c8.88,0,16.08,7.2,16.08,16.08s-7.2,16.08-16.08,16.08
		c-4.14,0-7.92-1.57-10.77-4.14l-0.13-0.14c-0.11-0.15-0.17-0.33-0.17-0.52c0-0.49,0.4-0.89,0.89-0.89c0.2,0,0.38,0.06,0.52,0.17
		l0.21,0.19c2.51,2.19,5.79,3.52,9.39,3.52c7.88,0,14.27-6.39,14.27-14.27S32.9,5.6,25.02,5.6c-4.62,0-8.72,2.19-11.33,5.59
		l-0.15,0.21c-0.16,0.14-0.37,0.23-0.6,0.23c-0.49,0-0.89-0.4-0.89-0.89c0-0.22,0.08-0.43,0.22-0.58L12.9,9.37z"/>
	<path class="st1" d="M36.24,42.19H14.99c-0.48,0-0.87,0.39-0.87,0.87s0.39,0.87,0.87,0.87h21.25h1.25c4.3,0,7.24-6.88,7.24-6.88
		c0-0.48-0.39-0.87-0.87-0.87h-7.63H14.99c-0.48,0-0.87,0.39-0.87,0.87c0,0.48,0.39,0.87,0.87,0.87h21.25h6.13
		c0,0-1.68,4.25-5.07,4.25L36.24,42.19z"/>
</g>
</svg>
