<?xml version="1.0" encoding="utf-8"?>
<!-- Generator: Adobe Illustrator 23.0.1, SVG Export Plug-In . SVG Version: 6.00 Build 0)  -->
<svg version="1.1" id="Layer_1" xmlns="http://www.w3.org/2000/svg" xmlns:xlink="http://www.w3.org/1999/xlink" x="0px" y="0px"
	 viewBox="0 0 47.56 49.35" style="enable-background:new 0 0 47.56 49.35;" xml:space="preserve">
<style type="text/css">
	.st0{fill:none;stroke:#FFFFFF;stroke-width:1.2;stroke-miterlimit:10;}
	.st1{fill:#00FFFF;}
</style>
<g>
	<g>
		
			<rect x="6.36" y="32.05" transform="matrix(0.7072 -0.707 0.707 0.7072 -25.7356 18.2279)" class="st0" width="5.55" height="16.27"/>
		<path class="st0" d="M46.19,24.74c-2.53,5.46-6.59,9.46-6.59,9.46c-3.61,3.74-6.13,5.47-6.13,5.47H19.39
			c-2.86,0-3.21,0.61-3.21,0.61l-7.14-7.17l0.34-0.35c4.81-5.25,6.31-4.99,6.31-4.99h6.16c2.63,2.06,3.26,2.1,3.26,2.1h6.65
			c1.86,0,1.65,1.65,1.65,1.65c0,1.66-1.62,1.65-1.62,1.65h-9.09v2.07h9.1c4.48-0.97,3.67-4.55,3.67-4.55l3.76-1.98
			c0.51-0.15,0.59-0.61,0.59-0.61l0.57-1.03C42.52,23.06,46.19,24.74,46.19,24.74z"/>
	</g>
	<g>
		<path class="st1" d="M26.78,8.12l-0.02,0c-2.52-0.18-4.22-1.21-4.22-1.21c-0.67-0.44-1.1-1.21-1.07-2.07
			c0.05-1.3,1.15-2.31,2.45-2.26c1.03,0.04,1.88,0.74,2.17,1.67c0,0,0.59,2.11,0.69,3.6L26.78,8.12z"/>
		<path class="st1" d="M37.23,4.09c-0.04,1.23-0.74,2.29-1.75,2.84c0,0-2.54,1.29-6.15,1.28l-0.03,0l0.05-0.39
			c0.3-2.12,1.37-5.06,1.37-5.06c0.5-1.31,1.79-2.21,3.27-2.16C35.84,0.66,37.3,2.23,37.23,4.09z"/>
		<rect x="13.94" y="10.47" class="st1" width="9.76" height="4.36"/>
		<rect x="25.83" y="10.47" class="st1" width="4.36" height="17.3"/>
		<rect x="32.34" y="10.47" class="st1" width="9.8" height="4.36"/>
		<path class="st1" d="M39.89,16.94v7.27c-0.16,0.04-1.07,1.25-1.42,2.01c-0.35,0.77-0.87,0.98-0.87,0.98l-3.29,1.69
			c-0.55-0.63-1.98-1.04-1.98-1.04V16.94H39.89z"/>
		<path class="st1" d="M23.69,16.94v9.47c0,0-0.79-0.73-1.97-0.73l-5.59-0.01v-8.73H23.69z"/>
	</g>
</g>
</svg>
