<?xml version="1.0" encoding="utf-8"?>
<!-- Generator: Adobe Illustrator 23.0.1, SVG Export Plug-In . SVG Version: 6.00 Build 0)  -->
<svg version="1.1" id="Layer_1" xmlns="http://www.w3.org/2000/svg" xmlns:xlink="http://www.w3.org/1999/xlink" x="0px" y="0px"
	 viewBox="0 0 34.83 48.6" style="enable-background:new 0 0 34.83 48.6;" xml:space="preserve">
<style type="text/css">
	.st0{fill:#FFFFFF;}
	.st1{fill:#00FFFF;}
</style>
<g>
	<path class="st0" d="M30.89,0.83H3.94c-1.85,0-3.35,1.48-3.35,3.3v35.39c0,4.55,3.74,8.24,8.34,8.24h16.95
		c4.61,0,8.35-3.69,8.35-8.24V4.13C34.24,2.31,32.74,0.83,30.89,0.83z M33.37,38.9c0,4.36-3.54,7.9-7.9,7.9H9.43
		c-4.36,0-7.9-3.54-7.9-7.9V4.96c0-1.75,1.42-3.17,3.17-3.17h25.5c1.75,0,3.17,1.42,3.17,3.17V38.9z"/>
	<path class="st0" d="M27.57,4.16H6.64c-1.43,0-2.6,0.64-2.6,1.44v15.4c0,1.98,2.9,3.58,6.48,3.58h13.16c3.58,0,6.48-1.6,6.48-3.58
		V5.6C30.17,4.8,29,4.16,27.57,4.16z M29.07,20.24c0,1.79-2.63,3.24-5.88,3.24H11.24c-3.25,0-5.88-1.45-5.88-3.24V6.34
		c0-0.72,1.06-1.3,2.36-1.3h18.99c1.3,0,2.36,0.58,2.36,1.3V20.24z"/>
	<path class="st1" d="M13.19,30.55v1.04c0,0.49-0.4,0.88-0.88,0.88h-2.12v2.34c0,0.49-0.4,0.88-0.88,0.88H8.26
		c-0.49,0-0.88-0.39-0.88-0.88v-2.34H5.25c-0.49,0-0.88-0.4-0.88-0.88v-1.04c0-0.49,0.4-0.88,0.88-0.88h2.12v-2.34
		c0-0.49,0.4-0.88,0.88-0.88H9.3c0.49,0,0.88,0.4,0.88,0.88v2.34h2.12C12.79,29.67,13.19,30.06,13.19,30.55z"/>
	<circle class="st1" cx="22.03" cy="32.27" r="2.07"/>
	<circle class="st1" cx="27.98" cy="29.66" r="2.07"/>
	<path class="st1" d="M16.45,40.87c0,0.18-0.07,0.34-0.19,0.46c-0.12,0.12-0.28,0.19-0.45,0.19h-2.45c-0.36,0-0.65-0.29-0.65-0.65
		c0-0.18,0.07-0.34,0.19-0.45c0.12-0.12,0.28-0.19,0.46-0.19h2.45C16.16,40.22,16.45,40.51,16.45,40.87z"/>
	<path class="st1" d="M21.94,40.87c0,0.18-0.07,0.34-0.19,0.46c-0.12,0.12-0.28,0.19-0.45,0.19h-2.45c-0.36,0-0.65-0.29-0.65-0.65
		c0-0.18,0.07-0.34,0.19-0.45c0.12-0.12,0.28-0.19,0.46-0.19h2.45C21.65,40.22,21.94,40.51,21.94,40.87z"/>
</g>
</svg>
