<?xml version="1.0" encoding="utf-8"?>
<!-- Generator: Adobe Illustrator 23.0.1, SVG Export Plug-In . SVG Version: 6.00 Build 0)  -->
<svg version="1.1" id="Layer_1" xmlns="http://www.w3.org/2000/svg" xmlns:xlink="http://www.w3.org/1999/xlink" x="0px" y="0px"
	 viewBox="0 0 50.52 47.73" style="enable-background:new 0 0 50.52 47.73;" xml:space="preserve">
<style type="text/css">
	.st0{fill:#FFFFFF;}
	.st1{fill:#00FFFF;}
	.st2{fill:none;stroke:#000000;stroke-width:0.25;stroke-miterlimit:10;}
	.st3{fill:none;stroke:#FFFFFF;stroke-miterlimit:10;}
</style>
<g>
	<path class="st0" d="M25.37,5.76l-0.11-0.07l-0.12,0.07L0.77,21.34v2.34l3.62-1.78v13.56C4.39,41.84,9.56,47,15.93,47h18.64
		c6.38,0,11.54-5.17,11.54-11.54V21.9l3.62,1.78v-2.34L25.37,5.76z M44.38,35.82c0,4.84-3.98,8.77-8.88,8.77H14.99
		c-4.9,0-8.88-3.93-8.88-8.77V21.96c0-0.33,0.02-0.65,0.05-0.97L25.25,8.01L44.33,21c0.04,0.32,0.05,0.64,0.05,0.97V35.82z"/>
	<path class="st1" d="M16.12,27.34c0,0,3.17-0.09,6.39,9.92l4.98-3.58c0,0,8.93-18.54,21.24-28.91c0,0-11.38,5.19-24.02,23.99
		c0,0-0.87-4.22-3.87-4.22C20.84,24.53,17.9,24.56,16.12,27.34z"/>
	<polygon class="st0" points="25.22,3.7 0.77,19.91 0.77,17.57 25.26,1.23 25.26,1.23 25.27,1.23 49.75,17.57 49.75,19.91 25.3,3.7 
		25.26,3.67 	"/>
	<path class="st2" d="M49.74,17.87"/>
	<polygon class="st3" points="4.32,13.07 12.11,8.33 12.11,1.23 4.32,1.23 	"/>
</g>
</svg>
