<?xml version="1.0" encoding="utf-8"?>
<!-- Generator: Adobe Illustrator 23.0.1, SVG Export Plug-In . SVG Version: 6.00 Build 0)  -->
<svg version="1.1" id="Layer_1" xmlns="http://www.w3.org/2000/svg" xmlns:xlink="http://www.w3.org/1999/xlink" x="0px" y="0px"
	 viewBox="0 0 64.21 47.45" style="enable-background:new 0 0 64.21 47.45;" xml:space="preserve">
<style type="text/css">
	.st0{fill:#FFFFFF;}
	.st1{fill:#00FFFF;}
</style>
<g>
	<path class="st0" d="M50.68,0.26H13.44c-4.3,0-7.79,3.49-7.79,7.79V30.8c0,4.3,3.49,7.79,7.79,7.79h37.24
		c4.3,0,7.79-3.49,7.79-7.79V8.05C58.47,3.75,54.98,0.26,50.68,0.26z M56.6,30.92c0,2.69-1.97,4.87-4.39,4.87H11.92
		c-2.43,0-4.39-2.17-4.39-4.87V7.47c0-2.69,1.97-4.87,4.39-4.87h40.29c2.42,0,4.39,2.18,4.39,4.87V30.92z"/>
	<path class="st1" d="M40.49,41.72c-0.21,0.85-0.99,1.48-1.9,1.48H25.96c-0.92,0-1.69-0.63-1.91-1.48H0.54v1.29
		c0,2.35,1.9,4.25,4.25,4.25h54.63c2.35,0,4.25-1.9,4.25-4.25v-1.29H40.49z M56.44,45.76c-0.7,0-1.27-0.57-1.27-1.27
		s0.57-1.27,1.27-1.27s1.27,0.57,1.27,1.27S57.15,45.76,56.44,45.76z"/>
	<path class="st0" d="M57.72,44.49c0,0.7-0.57,1.27-1.27,1.27s-1.27-0.57-1.27-1.27s0.57-1.27,1.27-1.27S57.72,43.79,57.72,44.49z"
		/>
</g>
</svg>
