<?xml version="1.0" encoding="utf-8"?>
<!-- Generator: Adobe Illustrator 23.0.1, SVG Export Plug-In . SVG Version: 6.00 Build 0)  -->
<svg version="1.1" id="Layer_1" xmlns="http://www.w3.org/2000/svg" xmlns:xlink="http://www.w3.org/1999/xlink" x="0px" y="0px"
	 viewBox="0 0 59.26 49.09" style="enable-background:new 0 0 59.26 49.09;" xml:space="preserve">
<style type="text/css">
	.st0{fill:#FFFFFF;}
	.st1{fill:none;stroke:#00FFFF;stroke-width:1.58;stroke-miterlimit:10;}
	.st2{fill:#00FFFF;}
</style>
<g>
	<path class="st0" d="M50.22,26.12c0-0.15,0.01-0.31,0.01-0.46c0.05-12.36-9.14-22.41-20.52-22.46s-20.65,9.94-20.7,22.3
		c0,0.21,0,0.42,0.01,0.63l0,0l-3.05,0c-0.05-0.66-0.08-1.33-0.08-2.01C5.95,11.01,16.61,0.43,29.72,0.48S53.4,11.2,53.35,24.3
		c0,0.61-0.03,1.22-0.08,1.82L50.22,26.12L50.22,26.12z"/>
	<path class="st1" d="M10.58,28.91h0.84c2.58,0,4.67,2.09,4.67,4.67v9.57c0,2.58-2.09,4.67-4.67,4.67h-0.84
		c-2.58,0-4.67-2.09-4.67-4.67v-9.34v-4.9H10.58z"/>
	<path class="st2" d="M0.58,38.22c0.05-7.35,3.31-7.1,3.31-7.1v7.1v0.31v7.1c0,0-3.26,0.25-3.31-7.1V38.22z"/>
	<path class="st1" d="M48.68,28.91h-0.84c-2.58,0-4.67,2.09-4.67,4.67v9.57c0,2.58,2.09,4.67,4.67,4.67h0.84
		c2.58,0,4.67-2.09,4.67-4.67v-9.34v-4.9H48.68z"/>
	<path class="st2" d="M58.68,38.21c-0.05-7.35-3.31-7.1-3.31-7.1v7.1v0.31v7.1c0,0,3.26,0.25,3.31-7.1V38.21z"/>
</g>
</svg>
