<?xml version="1.0" encoding="utf-8"?>
<!-- Generator: Adobe Illustrator 23.0.1, SVG Export Plug-In . SVG Version: 6.00 Build 0)  -->
<svg version="1.1" id="Layer_1" xmlns="http://www.w3.org/2000/svg" xmlns:xlink="http://www.w3.org/1999/xlink" x="0px" y="0px"
	 viewBox="0 0 60.45 49.74" style="enable-background:new 0 0 60.45 49.74;" xml:space="preserve">
<style type="text/css">
	.st0{fill:#00FFFF;stroke:#00FFFF;stroke-width:0.5;stroke-miterlimit:10;}
	.st1{fill:#FFFFFF;stroke:#FFFFFF;stroke-width:0.5;stroke-miterlimit:10;}
	.st2{fill:#FFFFFF;stroke:#FFFFFF;stroke-width:0.8;stroke-miterlimit:10;}
</style>
<g>
	<path class="st0" d="M28.23,44.73L16.85,15.86l-0.03-0.07l0.28-0.61l6.52-14.08l0-0.01H9.12l0,0L1.73,15.13l-0.39,0.74l0,0
		L26.8,44.72l2.53,2.86L28.23,44.73z M25.42,41.94L2.79,15.69L9.84,2.3h11.91l-6.23,13.46l1.71,4.35L26,41.43l1.19,2.66L25.42,41.94
		z"/>
	<path class="st1" d="M51.32,1.1H28.52l-6.99,14.65l8.67,21.71l7.51-18.96l1.57-3.6c0.39-0.78,1.21-1.31,2.14-1.28
		c1.27,0.04,2.27,1.11,2.23,2.38c0,0.12-0.02,0.23-0.04,0.34l-12.5,31.3l2.57-2.92l25.43-28.85L51.32,1.1z M33.27,44.09l3.22-6.67
		l8.34-20.8c0,0,0.51-2.91-2.4-4.03c0,0-3.15-1.24-4.93,3.17l-5.93,14.95l-1.37,4.64l-1.41-4.64L22.83,15.8l6.44-13.5H50.6v0.01
		l7.06,13.38L38.51,37.42L33.27,44.09z"/>
	<path class="st2" d="M29.32,20.09"/>
</g>
</svg>
