<?xml version="1.0" encoding="utf-8"?>
<!-- Generator: Adobe Illustrator 23.0.1, SVG Export Plug-In . SVG Version: 6.00 Build 0)  -->
<svg version="1.1" id="Layer_1" xmlns="http://www.w3.org/2000/svg" xmlns:xlink="http://www.w3.org/1999/xlink" x="0px" y="0px"
	 viewBox="0 0 80.01 123.11" style="enable-background:new 0 0 80.01 123.11;" xml:space="preserve">
<style type="text/css">
	.st0{fill:#A09C9C;}
</style>
<path class="st0" d="M76.85,40.72H4.71l3.17,71.19c0,0-0.77,8.81,10.83,8.81h44.15c11.6,0,10.83-8.81,10.83-8.81L76.85,40.72z
	 M22.99,112.19c-1.63,0.03-2.97-1.26-3.01-2.89l-1.05-51.8v-0.06c0-1.09,0.57-2.15,1.56-2.62c2.15-1.02,4.29,0.5,4.34,2.56
	l1.05,51.8C25.91,110.8,24.62,112.15,22.99,112.19z M43.93,109.7c0,1.98-1.91,3.51-3.99,2.84c-1.23-0.39-2.01-1.61-2.01-2.9V57.03
	c0-1.15,0.86-2.5,1.95-2.88c1.22-0.42,2.41-0.06,3.17,0.7c0.54,0.54,0.88,1.29,0.88,2.12V109.7z M61.93,57.5l-1.05,51.8
	c-0.03,1.63-1.38,2.92-3,2.89c-1.63-0.04-2.92-1.38-2.89-3.01l1.05-51.8c0.04-2.05,2.17-3.57,4.32-2.57
	c0.99,0.46,1.57,1.52,1.57,2.62V57.5z"/>
<path class="st0" d="M52.01,13.14c0,0-1.32-9.06-7.96-7.96c-5.02,0.83-6.88,1.13-7.49,1.23L36.03,6.5c-0.6,0.12-2.45,0.49-7.45,1.44
	c-6.61,1.26-4.73,10.22-4.73,10.22C0.11,23.43,2.56,36.88,2.56,36.88l37.7-6.66l0.52-0.09l37.68-6.76
	C78.45,23.37,76.11,9.91,52.01,13.14z M38.09,15.03l-0.52,0.09c-5.53,1.02-9.7,2.13-9.7,2.13s-1.39-5,1.53-5.5l7.34-1.25l0.53-0.09
	l7.33-1.36c2.92-0.54,3.34,4.64,3.34,4.64S43.63,14.08,38.09,15.03z"/>
</svg>
